<svg height="105" viewBox="0 0 105 105" width="105" xmlns="http://www.w3.org/2000/svg" xmlns:xlink="http://www.w3.org/1999/xlink"><linearGradient id="a" gradientUnits="userSpaceOnUse" x1="45.95" x2="100.22" y1="91" y2="91"><stop offset=".19" stop-color="#07c3f2"/><stop offset=".9" stop-color="#087cfa"/></linearGradient><linearGradient id="b" x1="6.25" x2="57.18" xlink:href="#a" y1="26.49" y2="26.49"/><linearGradient id="c" gradientUnits="userSpaceOnUse" x1="67.42" x2="19.86" y1="103.55" y2="37.17"><stop offset=".09" stop-color="#21d789"/><stop offset=".48" stop-color="#07c3f2"/><stop offset=".9" stop-color="#087cfa"/></linearGradient><path d="m77.86 100.5 22.64-59.86-18-4.08z" fill="#087cfa"/><path d="m100.22 81.5-22.36 19-31.91-8.22z" fill="url(#a)"/><path d="m16.45 48.48-10.2-29.18 50.93-14.8z" fill="url(#b)"/><path d="m88.26 60.08-14.29-24.39.27-.17-17.06-31.02-52.68 56.89v39.11l95.72-19z" fill="url(#c)"/><path d="m22.5 22.5h60v60h-60z"/><g fill="#fff"><path d="m29.98 71.16h22.5v3.75h-22.5z"/><path d="m38 30h4.5l9.58 22.53h-5.14l-2-5h-9.5l-2 5h-5zm5.18 13.17-3-7.26-3 7.26z"/><path d="m51.29 41.37v-.06a11.53 11.53 0 0 1 11.83-11.73 11.73 11.73 0 0 1 8.95 3.49l-3.18 3.67a8.36 8.36 0 0 0 -5.8-2.56c-3.82 0-6.58 3.17-6.58 7.06v.07c0 3.89 2.69 7.13 6.58 7.13 2.59 0 4.18-1 6-2.66l3.14 3.22a11.63 11.63 0 0 1 -9.3 4 11.45 11.45 0 0 1 -11.64-11.63"/></g></svg>