<svg xmlns="http://www.w3.org/2000/svg" width="105" height="105" fill="none" viewBox="0 0 105 105">
  <defs>
    <linearGradient id="b" x1="40.1861" x2="27.5468" y1="85.2688" y2="39.6573" gradientUnits="userSpaceOnUse">
      <stop stop-color="#087CFA"/>
      <stop offset="1" stop-color="#6B57FF"/>
    </linearGradient>
    <linearGradient id="c" x1="22.8315" x2="69.8886" y1="92.0627" y2="24.37" gradientUnits="userSpaceOnUse">
      <stop stop-color="#087CFA"/>
      <stop offset="0.387317" stop-color="#097FF6"/>
      <stop offset="0.960121" stop-color="#3BEA62"/>
    </linearGradient>
    <clipPath id="a">
      <path fill="#fff" d="M0 0H96V96H0z" transform="translate(5 5)"/>
    </clipPath>
  </defs>
  <g clip-path="url(#a)">
    <path fill="url(#b)" d="M50.3723 39.4774L9.77108 29.5547L5 40.8429L19.6355 87.6561L58.5215 100.999L50.3723 39.4774Z"/>
    <path fill="url(#c)" d="M101 32.4612L91.2422 13.3551L41.451 5L19.6355 87.6569L58.5215 101L60.6048 97.5803L101 32.4612Z"/>
    <path fill="#000" d="M83.2009 23H23.2009V83H83.2009V23Z"/>
    <path fill="#fff" d="M63.4357 30.3193H68.0163L77.6937 53.061H72.5001L70.4356 47.9966H60.8874L58.8228 53.061H53.7583L63.4357 30.3193ZM68.6614 43.6095L65.6615 36.2869L62.6615 43.6095H68.6614V43.6095Z"/>
    <path fill="#fff" d="M49.8137 53.7388L47.3299 51.513C45.4265 52.7387 43.1363 53.4484 40.6201 53.4484C33.6525 53.4484 28.6526 48.2549 28.6526 41.8357V41.7711C28.6526 35.3518 33.717 30.0938 40.6847 30.0938C47.6524 30.0938 52.6523 35.2874 52.6523 41.7066V41.7711C52.6523 44.1582 51.9104 46.384 50.6524 48.2549L52.9749 50.2227L49.8137 53.7388V53.7388ZM43.6524 48.2549L39.9751 45.126L43.1363 41.5776L46.846 44.9324C47.2331 44.0293 47.4588 42.9646 47.4588 41.8357V41.7711C47.4588 37.9002 44.6202 34.6744 40.6201 34.6744C36.6202 34.6744 33.8461 37.8358 33.8461 41.7066V41.7711C33.8461 45.6421 36.6848 48.8679 40.6847 48.8679C41.7815 48.8679 42.7815 48.6742 43.6524 48.2549V48.2549Z"/>
    <path fill="#fff" d="M51.326 71.749H28.8262V75.4987H51.326V71.749Z"/>
  </g>
</svg>
