<svg width="32" height="32" viewBox="0 0 32 32" fill="none" xmlns="http://www.w3.org/2000/svg">
<path d="M32 0H0V32H32V0Z" fill="#EBECF0"/>
<path d="M8.68005 20.04C8.52005 20.32 8.32005 20.6 8.20005 20.88C8.08005 21.12 8.12005 21.44 8.36005 21.56L11.6401 23.6C11.8801 23.76 12.2 23.68 12.32 23.44C12.44 23.2 12.6 22.92 12.8 22.64C14.12 20.48 15.4 20.76 17.76 21.88L21 23.44C21.24 23.56 21.56 23.44 21.68 23.2L23.2401 19.68C23.3601 19.44 23.24 19.12 23 19C22.32 18.68 20.9601 18.04 19.72 17.44C15.28 15.24 11.52 15.36 8.68005 20.04Z" fill="url(#paint0_linear)"/>
<path d="M23.36 11.9999C23.52 11.7199 23.72 11.4399 23.84 11.1599C23.96 10.9199 23.92 10.5999 23.68 10.4799L20.4 8.43993C20.16 8.27993 19.84 8.35993 19.72 8.59993C19.6 8.83993 19.44 9.11993 19.24 9.39993C17.92 11.5599 16.64 11.2799 14.28 10.1599L11.04 8.59993C10.8 8.47993 10.48 8.59993 10.36 8.83993L8.80001 12.3599C8.68001 12.5999 8.80001 12.9199 9.04001 13.0399C9.72001 13.3599 11.08 13.9999 12.32 14.5999C16.76 16.8399 20.48 16.6799 23.36 11.9999Z" fill="url(#paint1_linear)"/>
<defs>
<linearGradient id="paint0_linear" x1="23.163" y1="24.6108" x2="13.2351" y2="18.9059" gradientUnits="userSpaceOnUse">
<stop stop-color="#0052CC"/>
<stop offset="0.9182" stop-color="#2380FB"/>
<stop offset="1" stop-color="#2684FF"/>
</linearGradient>
<linearGradient id="paint1_linear" x1="8.87305" y1="7.44285" x2="18.8008" y2="13.1477" gradientUnits="userSpaceOnUse">
<stop stop-color="#0052CC"/>
<stop offset="0.9182" stop-color="#2380FB"/>
<stop offset="1" stop-color="#2684FF"/>
</linearGradient>
</defs>
</svg>
