<?xml version="1.0" standalone="no"?>
<!DOCTYPE svg PUBLIC "-//W3C//DTD SVG 20010904//EN"
 "http://www.w3.org/TR/2001/REC-SVG-20010904/DTD/svg10.dtd">
<svg version="1.0" xmlns="http://www.w3.org/2000/svg"
 width="356.000000pt" height="230.000000pt" viewBox="0 0 356.000000 230.000000"
 preserveAspectRatio="xMidYMid meet">

<g transform="translate(0.000000,230.000000) scale(0.100000,-0.100000)"
fill="#000000" stroke="none">
<path d="M2452 2275 c-60 -27 -108 -73 -141 -135 l-32 -60 -509 0 -510 0 -20
39 c-25 49 -79 103 -128 128 -53 26 -154 24 -208 -4 -44 -24 -104 -85 -129
-132 l-16 -31 -174 0 -175 0 0 -25 c0 -24 -3 -25 -55 -25 l-55 0 0 -43 c0 -23
7 -98 15 -167 99 -835 718 -1450 1460 -1450 535 0 1020 321 1287 853 108 217
188 542 188 768 l0 39 -55 0 c-52 0 -55 1 -55 25 l0 25 -170 0 -170 0 -21 42
c-34 67 -60 96 -112 130 -59 38 -160 49 -215 23z m73 -148 c45 -45 54 -100 26
-162 -50 -113 -186 -83 -199 44 -12 127 93 198 173 118z m-1536 -13 c58 -49
65 -144 15 -203 -47 -56 -116 -49 -161 18 -41 60 -26 144 33 190 36 28 76 26
113 -5z m-349 -161 c38 -48 11 -116 -44 -111 -55 5 -73 79 -30 122 23 24 50
19 74 -11z m2030 -53 c27 -14 41 -64 28 -100 -27 -80 -118 -57 -118 30 0 62
43 95 90 70z m-1535 -16 c19 -8 45 -55 45 -82 0 -30 -38 -72 -66 -72 -61 0
-87 88 -39 135 25 26 33 29 60 19z m-443 -164 c34 -69 46 -157 25 -185 -15
-20 -16 -20 -41 4 -43 40 -78 179 -56 220 18 34 42 21 72 -39z m1764 -383 c-6
-64 -25 -148 -45 -199 l-11 -28 -625 0 -625 0 -11 28 c-19 50 -37 128 -44 195
l-7 67 687 0 688 0 -7 -63z"/>
<path d="M10 1932 c0 -37 7 -124 15 -194 72 -613 381 -1144 850 -1457 423
-283 929 -353 1404 -195 674 224 1171 892 1251 1683 5 57 10 132 10 167 l0 64
-35 0 -35 0 0 -59 c0 -174 -42 -416 -106 -611 -185 -565 -602 -1003 -1114
-1170 -446 -146 -920 -82 -1320 178 -459 297 -766 815 -835 1407 -8 71 -15
158 -15 192 l0 63 -35 0 -35 0 0 -68z"/>
</g>
</svg>
