<svg version="1.1" id="Layer_1" xmlns="http://www.w3.org/2000/svg" xmlns:xlink="http://www.w3.org/1999/xlink" x="0px" y="0px"
	 width="100%" viewBox="0 0 356 230" enable-background="new 0 0 356 230" xml:space="preserve">
<path fill="#47704C" opacity="1.000000" stroke="none" 
	d="
M276.000000,1.000000 
	C302.974976,1.000000 329.949921,1.000000 356.962463,1.000000 
	C356.962463,77.570526 356.962463,154.141068 356.962463,231.000000 
	C303.646118,231.000000 250.291718,231.000000 196.772491,230.740967 
	C208.086807,227.935028 219.995117,226.581116 230.970047,222.632736 
	C276.223938,206.352036 308.954712,175.526093 331.291412,133.331284 
	C343.066528,111.087677 350.432678,87.350418 353.807983,62.436943 
	C354.985260,53.747288 355.244202,44.935581 356.025482,36.188812 
	C356.361389,32.428116 355.193176,30.400496 351.066528,30.981577 
	C350.085602,31.119699 349.070953,31.018366 347.596313,31.017334 
	C340.430328,30.968828 333.739899,30.930162 327.022949,30.496698 
	C325.813324,29.071693 324.761322,27.435450 323.418304,27.145021 
	C321.060272,26.635113 318.524048,26.949299 316.036530,26.502071 
	C316.256866,23.221968 314.459900,22.976978 312.242493,22.980534 
	C305.492249,22.991362 298.741821,22.899963 291.840790,22.535721 
	C289.553314,18.424295 287.760773,14.370138 285.184601,10.897319 
	C282.519257,7.304317 279.093262,4.275570 276.000000,1.000000 
z"/>
<path fill="#47704C" opacity="1.000000" stroke="none" 
	d="
M161.000000,231.000000 
	C107.733780,231.000000 54.467552,231.000000 1.000000,231.000000 
	C1.000000,168.645920 1.000000,106.291618 1.263254,43.786499 
	C3.556729,57.537106 4.529417,71.694016 7.814484,85.292297 
	C17.868141,126.908691 38.474480,162.446732 71.116417,190.682449 
	C90.803444,207.712006 113.068550,219.754791 138.281509,226.200867 
	C145.773621,228.116348 153.422791,229.417404 161.000000,231.000000 
z"/>
<path fill="#117442" opacity="1.000000" stroke="none" 
	d="
M161.468658,231.000000 
	C153.422791,229.417404 145.773621,228.116348 138.281509,226.200867 
	C113.068550,219.754791 90.803444,207.712006 71.116417,190.682449 
	C38.474480,162.446732 17.868141,126.908691 7.814484,85.292297 
	C4.529417,71.694016 3.556729,57.537106 1.263254,43.317841 
	C1.000000,39.307091 1.000000,35.614182 1.440803,31.459862 
	C4.230445,31.008028 6.579285,31.017605 8.927358,31.492596 
	C9.720642,42.896923 9.714207,53.964939 11.453919,64.751328 
	C17.459866,101.988785 31.624361,135.792572 56.643368,164.384064 
	C91.930283,204.709656 135.769806,225.858063 190.179962,222.168625 
	C226.865616,219.681076 258.481171,205.039856 285.087860,180.204071 
	C328.170380,139.989090 347.514740,89.383400 348.071838,31.027172 
	C349.070953,31.018366 350.085602,31.119699 351.066528,30.981577 
	C355.193176,30.400496 356.361389,32.428116 356.025482,36.188812 
	C355.244202,44.935581 354.985260,53.747288 353.807983,62.436943 
	C350.432678,87.350418 343.066528,111.087677 331.291412,133.331284 
	C308.954712,175.526093 276.223938,206.352036 230.970047,222.632736 
	C219.995117,226.581116 208.086807,227.935028 196.303833,230.740967 
	C184.645767,231.000000 173.291550,231.000000 161.468658,231.000000 
z"/>
<path fill="#432D24" opacity="1.000000" stroke="none" 
	d="
M248.000000,1.000000 
	C252.356903,1.000000 256.713806,1.000000 261.563232,1.351410 
	C262.990845,2.313642 263.882111,3.008619 264.867981,3.521995 
	C272.909882,7.709745 278.235901,14.169455 281.054230,23.170067 
	C286.615112,43.794975 278.434845,60.895840 263.901215,68.840233 
	C258.708771,71.678513 252.920959,72.578560 248.077576,70.123100 
	C230.896210,61.412643 224.754333,44.916828 227.790436,28.540672 
	C228.131470,26.701206 227.885284,24.752867 228.001678,22.521631 
	C232.586121,13.643487 238.012802,6.018391 247.494949,2.329416 
	C247.790909,2.214278 247.837280,1.457597 248.000000,1.000000 
M255.172165,36.525070 
	C255.837448,34.858784 256.773651,33.246681 257.119690,31.516541 
	C258.405640,25.087147 256.060364,18.794218 251.493942,16.260239 
	C247.598526,14.098613 243.845352,14.563046 240.424667,17.374107 
	C236.284622,20.776299 234.775665,27.478567 236.762329,33.325920 
	C239.804535,42.280060 248.254822,44.084332 255.172165,36.525070 
M269.877319,53.379662 
	C270.268585,50.677349 271.300598,47.877220 270.906403,45.294819 
	C270.256317,41.036526 265.585968,39.054161 262.197937,41.051247 
	C258.800964,43.053600 257.648102,48.773716 259.881714,52.543377 
	C262.121460,56.323383 264.920654,56.739155 269.877319,53.379662 
z"/>
<path fill="#47704C" opacity="1.000000" stroke="none" 
	d="
M116.000000,1.000000 
	C155.020889,1.000000 194.041794,1.000000 233.403778,1.314376 
	C226.278580,7.054450 220.875626,14.009983 217.546661,22.898771 
	C190.383057,22.915485 163.684677,22.881618 136.986298,22.484081 
	C133.219055,11.872600 125.296341,5.753848 116.000000,1.000000 
z"/>
<path fill="#47704C" opacity="1.000000" stroke="none" 
	d="
M8.928123,31.027182 
	C6.579285,31.017605 4.230445,31.008028 1.440803,30.999226 
	C1.000000,21.037865 1.000000,11.075727 1.000000,1.000000 
	C29.354136,1.000000 57.708408,1.000000 86.364548,1.300235 
	C77.088043,6.064469 70.599045,13.531758 65.546326,22.898237 
	C58.350616,22.966528 51.616554,23.117453 44.891048,22.941484 
	C41.840725,22.861675 40.649021,23.992157 40.490959,26.944897 
	C38.090977,26.981604 36.133114,27.075045 34.184280,26.981102 
	C31.382029,26.846027 29.821825,27.918978 29.485998,30.922443 
	C22.323748,30.978363 15.625936,31.002773 8.928123,31.027182 
z"/>
<path fill="#010101" opacity="1.000000" stroke="none" 
	d="
M66.011459,22.847483 
	C70.599045,13.531758 77.088043,6.064469 86.833206,1.300235 
	C96.354225,1.000000 105.708458,1.000000 115.531342,1.000000 
	C125.296341,5.753848 133.219055,11.872600 136.561462,22.544048 
	C134.431595,23.032230 132.726562,23.096769 130.642639,23.092621 
	C129.492874,23.009596 128.722015,22.995260 127.713501,22.740852 
	C126.226631,20.360640 125.073769,18.156981 123.711700,16.091263 
	C117.527779,6.712742 108.651688,2.339806 97.697067,4.252660 
	C87.267128,6.073897 80.529724,13.004894 76.578995,22.958033 
	C75.110802,23.021868 74.044106,23.092335 72.545563,23.109867 
	C70.079628,22.987114 68.045540,22.917299 66.011459,22.847483 
z"/>
<path fill="#010101" opacity="1.000000" stroke="none" 
	d="
M218.011856,22.848190 
	C220.875626,14.009983 226.278580,7.054450 233.872437,1.314376 
	C238.356903,1.000000 242.713806,1.000000 247.535355,1.000000 
	C247.837280,1.457597 247.790909,2.214278 247.494949,2.329416 
	C238.012802,6.018391 232.586121,13.643487 227.631836,22.545324 
	C226.436661,22.984095 225.701599,23.065792 224.534729,23.101854 
	C222.072586,22.986877 220.042221,22.917534 218.011856,22.848190 
z"/>
<path fill="#010101" opacity="1.000000" stroke="none" 
	d="
M281.063416,22.742579 
	C278.235901,14.169455 272.909882,7.709745 264.867981,3.521995 
	C263.882111,3.008619 262.990845,2.313642 262.027863,1.351410 
	C266.356903,1.000000 270.713806,1.000000 275.535339,1.000000 
	C279.093262,4.275570 282.519257,7.304317 285.184601,10.897319 
	C287.760773,14.370138 289.553314,18.424295 291.406921,22.596661 
	C289.093536,23.029541 287.063324,23.088842 284.640381,23.069681 
	C283.186249,22.908339 282.124817,22.825459 281.063416,22.742579 
z"/>
<path fill="#74B755" opacity="1.000000" stroke="none" 
	d="
M8.927358,31.492596 
	C15.625936,31.002773 22.323748,30.978363 29.762856,31.246023 
	C30.967815,37.167908 31.269903,42.816475 31.920700,48.424580 
	C37.140896,93.408646 55.437534,131.807877 90.130096,161.505829 
	C117.029221,184.532333 148.433807,196.058609 183.946365,194.638840 
	C218.125702,193.272324 247.671799,179.969223 272.454987,156.673889 
	C303.323425,127.658623 320.047729,91.424637 325.038788,49.573017 
	C325.780426,43.354355 326.382721,37.119083 327.049500,30.891495 
	C333.739899,30.930162 340.430328,30.968828 347.596313,31.017334 
	C347.514740,89.383400 328.170380,139.989090 285.087860,180.204071 
	C258.481171,205.039856 226.865616,219.681076 190.179962,222.168625 
	C135.769806,225.858063 91.930283,204.709656 56.643368,164.384064 
	C31.624361,135.792572 17.459866,101.988785 11.453919,64.751328 
	C9.714207,53.964939 9.720642,42.896923 8.927358,31.492596 
z"/>
<path fill="#DB6262" opacity="1.000000" stroke="none" 
	d="
M327.022949,30.496700 
	C326.382721,37.119083 325.780426,43.354355 325.038788,49.573017 
	C320.047729,91.424637 303.323425,127.658623 272.454987,156.673889 
	C247.671799,179.969223 218.125702,193.272324 183.946365,194.638840 
	C148.433807,196.058609 117.029221,184.532333 90.130096,161.505829 
	C55.437534,131.807877 37.140896,93.408646 31.920700,48.424580 
	C31.269903,42.816475 30.967815,37.167908 30.227293,31.214512 
	C29.821825,27.918978 31.382029,26.846027 34.184280,26.981102 
	C36.133114,27.075045 38.090977,26.981604 40.672585,27.323830 
	C42.531223,37.365559 43.222992,47.160423 45.087791,56.726624 
	C52.513073,94.817413 70.714905,126.654243 101.419106,150.809967 
	C115.821945,162.141052 131.847565,170.388092 150.371323,174.121033 
	C168.767456,179.380981 186.856857,178.803421 205.365753,174.800659 
	C233.614014,167.941513 256.813049,153.586151 275.691101,131.962952 
	C297.631927,106.831558 309.940552,77.570709 314.024780,44.654686 
	C314.757538,38.749207 315.385895,32.830769 316.062439,26.918316 
	C318.524048,26.949299 321.060272,26.635113 323.418304,27.145021 
	C324.761322,27.435450 325.813324,29.071693 327.022949,30.496700 
z"/>
<path fill="#AE393A" opacity="1.000000" stroke="none" 
	d="
M316.036530,26.502071 
	C315.385895,32.830769 314.757538,38.749207 314.024780,44.654686 
	C309.940552,77.570709 297.631927,106.831558 275.691101,131.962952 
	C256.813049,153.586151 233.614014,167.941513 205.442291,174.475876 
	C206.515945,173.073715 207.788040,171.790344 209.293533,170.902908 
	C212.860092,168.800568 216.999451,167.413635 220.041504,164.749100 
	C223.154266,162.022614 224.934586,157.834076 227.821030,154.779648 
	C239.500900,142.420090 247.271194,128.055649 250.618683,111.384964 
	C251.524689,106.872948 251.468826,102.336243 247.628952,97.937462 
	C247.311722,99.442749 247.150284,100.208755 246.791824,100.977341 
	C246.594803,100.979919 246.200745,100.964882 246.144836,100.571289 
	C246.389313,98.112083 246.689728,96.046463 247.351471,94.006165 
	C252.726395,96.932114 254.862854,102.700325 253.653702,109.509003 
	C251.048126,124.180809 245.037460,137.327499 236.180496,149.245331 
	C235.335968,150.381744 234.781097,151.733414 233.396606,154.247452 
	C235.521805,153.341278 236.147095,153.163956 236.678619,152.835114 
	C255.116180,141.428192 269.397003,126.159325 280.465607,107.482796 
	C293.683868,85.179054 299.353485,60.932316 300.903351,35.440285 
	C300.986420,34.073917 300.220673,31.930723 299.181427,31.353987 
	C295.723602,29.435028 290.879883,31.385235 288.793640,34.792217 
	C288.050690,33.389091 287.512909,32.192661 286.915771,30.632641 
	C286.248657,27.895414 285.640900,25.521776 285.033142,23.148142 
	C287.063324,23.088842 289.093536,23.029541 291.557617,22.909298 
	C298.741821,22.899963 305.492249,22.991362 312.242493,22.980534 
	C314.459900,22.976978 316.256866,23.221968 316.036530,26.502071 
z"/>
<path fill="#8F3130" opacity="1.000000" stroke="none" 
	d="
M284.640381,23.069677 
	C285.640900,25.521776 286.248657,27.895414 286.667542,30.964546 
	C286.314789,36.451710 286.041565,41.242596 286.007080,46.035198 
	C285.890076,62.308071 275.271210,76.180344 259.498169,79.495399 
	C251.053009,81.270325 243.176102,79.892639 237.461868,72.114937 
	C234.746521,68.419052 231.189667,65.341438 228.010925,61.738274 
	C228.007828,61.492813 227.994049,61.002045 227.997864,60.601036 
	C226.960159,52.642742 225.988129,45.074821 224.834152,37.534744 
	C224.494431,35.315094 223.639709,33.174267 223.036163,30.621668 
	C223.689713,27.879845 224.328110,25.513666 224.966522,23.147488 
	C225.701599,23.065792 226.436661,22.984095 227.541565,22.878706 
	C227.885284,24.752867 228.131470,26.701206 227.790436,28.540672 
	C224.754333,44.916828 230.896210,61.412643 248.077576,70.123100 
	C252.920959,72.578560 258.708771,71.678513 263.901215,68.840233 
	C278.434845,60.895840 286.615112,43.794975 281.054230,23.170067 
	C282.124817,22.825459 283.186249,22.908339 284.640381,23.069677 
z"/>
<path fill="#F9FAF9" opacity="1.000000" stroke="none" 
	d="
M254.984009,36.850723 
	C248.254822,44.084332 239.804535,42.280060 236.762329,33.325920 
	C234.775665,27.478567 236.284622,20.776299 240.424667,17.374107 
	C243.845352,14.563046 247.598526,14.098613 251.493942,16.260239 
	C256.060364,18.794218 258.405640,25.087147 257.119690,31.516541 
	C256.773651,33.246681 255.837448,34.858784 254.984009,36.850723 
z"/>
<path fill="#F6F6F5" opacity="1.000000" stroke="none" 
	d="
M269.632690,53.667519 
	C264.920654,56.739155 262.121460,56.323383 259.881714,52.543377 
	C257.648102,48.773716 258.800964,43.053600 262.197937,41.051247 
	C265.585968,39.054161 270.256317,41.036526 270.906403,45.294819 
	C271.300598,47.877220 270.268585,50.677349 269.632690,53.667519 
z"/>
<path fill="#AE3839" opacity="1.000000" stroke="none" 
	d="
M224.534729,23.101856 
	C224.328110,25.513666 223.689713,27.879845 222.657257,30.622511 
	C221.506256,31.000807 220.749329,31.002617 219.524200,31.004162 
	C193.009293,31.002892 166.962448,31.035261 140.915909,30.962448 
	C137.291779,30.952318 134.526657,31.439178 134.668030,35.999329 
	C133.896286,36.000698 133.455429,36.001846 132.758331,36.001041 
	C132.331284,35.998093 132.160477,35.997093 131.992157,35.586433 
	C131.670288,31.171616 131.345917,27.166462 131.021545,23.161308 
	C132.726562,23.096769 134.431595,23.032230 136.561447,22.907721 
	C163.684677,22.881618 190.383057,22.915485 217.546661,22.898771 
	C220.042221,22.917534 222.072586,22.986877 224.534729,23.101856 
z"/>
<path fill="#AE3939" opacity="1.000000" stroke="none" 
	d="
M149.999664,174.028320 
	C131.847565,170.388092 115.821945,162.141052 101.419106,150.809967 
	C70.714905,126.654243 52.513073,94.817413 45.087791,56.726624 
	C43.222992,47.160423 42.531223,37.365559 41.118736,27.296852 
	C40.649021,23.992157 41.840725,22.861675 44.891048,22.941484 
	C51.616554,23.117453 58.350616,22.966528 65.546326,22.898237 
	C68.045540,22.917299 70.079628,22.987114 72.534134,23.468010 
	C70.679466,27.655878 70.292618,31.731594 70.779053,35.990807 
	C70.348091,35.996201 70.175880,35.997307 69.651985,35.880013 
	C69.046768,35.556915 68.672791,35.404476 68.557892,35.139637 
	C67.023308,31.602398 60.666199,29.381773 57.341190,31.420967 
	C56.931240,31.672384 57.291698,33.179989 57.106400,34.428982 
	C54.174107,38.528591 54.611198,42.282425 56.996674,46.447742 
	C60.254723,88.900330 97.278481,149.291718 122.367218,152.168869 
	C120.920418,149.846466 119.738747,147.979050 118.586220,146.093811 
	C115.729958,141.421722 112.612465,136.876648 110.203339,131.983444 
	C109.465172,130.484146 110.683731,128.021454 111.239304,126.282166 
	C114.229927,132.138733 116.515648,138.019333 119.878876,143.200516 
	C123.186356,148.295853 128.663742,152.171097 131.201370,157.523987 
	C133.670273,162.731888 137.550934,165.231857 141.852264,167.980469 
	C144.695328,169.797272 147.292435,171.998962 149.999664,174.028320 
z"/>
<path fill="#412D24" opacity="1.000000" stroke="none" 
	d="
M76.980507,22.964666 
	C80.529724,13.004894 87.267128,6.073897 97.697067,4.252660 
	C108.651688,2.339806 117.527779,6.712742 123.711700,16.091263 
	C125.073769,18.156981 126.226631,20.360640 127.682892,23.158772 
	C128.617493,27.883698 129.345047,31.950632 130.039612,36.442772 
	C130.042618,38.574478 130.078598,40.280983 130.005157,42.364899 
	C128.940445,46.499420 127.985161,50.256531 126.775223,54.236706 
	C125.709274,55.898499 124.926308,57.354084 124.082245,58.773327 
	C116.360924,71.756310 101.471558,75.779877 89.097816,68.033661 
	C82.690025,64.022255 79.119186,57.641541 75.980774,50.681396 
	C75.908241,49.937012 75.858299,49.512470 75.819862,48.794621 
	C75.565826,48.000832 75.300293,47.500351 75.013153,46.604221 
	C74.651527,44.137684 74.311501,42.066795 74.001892,39.597286 
	C74.019524,38.133503 74.006744,37.068336 74.049454,35.607105 
	C75.063469,31.128914 76.021988,27.046791 76.980507,22.964666 
M103.524979,36.742107 
	C103.923409,35.311054 104.556953,33.899673 104.678665,32.445461 
	C105.148834,26.827873 103.755768,21.823326 98.809746,18.563606 
	C95.447510,16.347694 91.871681,16.662123 88.541374,18.913757 
	C84.391144,21.719749 82.101425,28.143759 83.280098,33.515793 
	C83.350494,33.836601 83.514542,34.136086 83.595146,34.455551 
	C84.837852,39.380726 87.712914,42.913090 92.855103,43.622871 
	C97.689461,44.290157 101.017433,41.644615 103.524979,36.742107 
M118.295715,52.729595 
	C117.328026,49.637497 116.793327,46.281559 115.157318,43.596699 
	C114.586266,42.659542 110.148369,42.556904 109.476089,43.499458 
	C107.728683,45.949371 106.135292,49.255505 106.328369,52.094307 
	C106.469238,54.165657 109.200783,56.943363 111.397835,57.783180 
	C114.604485,59.008919 116.881477,56.551098 118.295715,52.729595 
z"/>
<path fill="#973635" opacity="1.000000" stroke="none" 
	d="
M76.578995,22.958033 
	C76.021988,27.046791 75.063469,31.128914 73.679550,35.606667 
	C72.515373,35.997044 71.776581,35.991783 71.037796,35.986526 
	C70.292618,31.731594 70.679466,27.655878 72.965988,23.520948 
	C74.044106,23.092335 75.110802,23.021868 76.578995,22.958033 
z"/>
<path fill="#973635" opacity="1.000000" stroke="none" 
	d="
M130.072601,36.017567 
	C129.345047,31.950632 128.617493,27.883698 127.920555,23.398844 
	C128.722015,22.995260 129.492874,23.009596 130.642639,23.092621 
	C131.345917,27.166462 131.670288,31.171616 131.672516,35.588181 
	C130.924438,36.005585 130.498520,36.011578 130.072601,36.017567 
z"/>
<path fill="#A33736" opacity="1.000000" stroke="none" 
	d="
M150.371323,174.121033 
	C147.292435,171.998962 144.695328,169.797272 141.852264,167.980469 
	C137.550934,165.231857 133.670273,162.731888 131.201370,157.523987 
	C128.663742,152.171097 123.186356,148.295853 119.878876,143.200516 
	C116.515648,138.019333 114.229927,132.138733 111.169479,125.919502 
	C109.927773,121.516960 108.988953,117.759315 108.355476,114.072144 
	C109.770699,115.096077 110.880569,116.049530 111.999741,117.331161 
	C112.017334,118.097000 112.025635,118.534660 112.077255,119.325569 
	C113.064247,121.128815 114.007927,122.578812 114.962616,124.397179 
	C114.992088,125.502373 115.010536,126.239189 115.083633,127.361122 
	C115.829231,130.302353 116.075172,133.094223 117.283897,135.376083 
	C124.731331,149.435623 135.840637,160.503067 149.708252,167.510742 
	C169.267838,177.394730 189.660034,176.241608 209.381989,166.671783 
	C210.966629,165.902863 211.799530,163.584732 213.117004,161.788986 
	C213.461685,161.344666 213.710022,161.146667 214.362000,160.985855 
	C223.187042,157.514328 228.635773,150.609833 234.073959,143.790222 
	C240.879395,135.256058 244.371765,125.027290 247.608246,114.840080 
	C248.999207,110.461853 250.388016,105.437843 246.988846,100.974754 
	C247.150284,100.208755 247.311722,99.442749 247.628952,97.937462 
	C251.468826,102.336243 251.524689,106.872948 250.618683,111.384964 
	C247.271194,128.055649 239.500900,142.420090 227.821030,154.779648 
	C224.934586,157.834076 223.154266,162.022614 220.041504,164.749100 
	C216.999451,167.413635 212.860092,168.800568 209.293533,170.902908 
	C207.788040,171.790344 206.515945,173.073715 205.061218,174.501892 
	C186.856857,178.803421 168.767456,179.380981 150.371323,174.121033 
z"/>
<path fill="#FFFFFF" opacity="1.000000" stroke="none" 
	d="
M246.990143,93.980850 
	C246.689728,96.046463 246.389313,98.112083 246.048462,100.967072 
	C245.582367,104.121338 245.156738,106.486221 244.443527,109.097122 
	C243.076401,112.877213 241.996872,116.411278 240.456711,119.971878 
	C198.677734,119.988922 157.359360,119.979431 115.907616,119.650085 
	C114.882500,117.533997 113.990768,115.737762 113.065491,113.617508 
	C112.977211,112.865608 112.922455,112.437737 112.931152,111.707504 
	C112.747673,110.876404 112.500732,110.347664 112.284012,109.411499 
	C111.551308,105.965904 110.788376,102.927727 110.019394,99.456902 
	C110.015190,97.009521 110.017029,94.994797 110.159004,92.591652 
	C112.097038,91.803551 113.893906,91.060120 115.692993,91.054726 
	C154.796143,90.937599 193.899536,90.902679 233.462830,90.916405 
	C237.189590,90.988220 240.489502,90.733315 243.706085,91.139023 
	C244.901230,91.289764 245.901169,92.988197 246.990143,93.980850 
z"/>
<path fill="#B73E40" opacity="1.000000" stroke="none" 
	d="
M247.351456,94.006165 
	C245.901169,92.988197 244.901230,91.289764 243.706085,91.139023 
	C240.489502,90.733315 237.189590,90.988220 233.479126,90.541763 
	C233.919678,87.609932 234.579788,85.005989 235.747345,82.653923 
	C237.073257,79.982811 236.731064,78.493011 234.291718,76.399841 
	C223.780914,67.380669 219.307144,55.223454 219.634232,41.863869 
	C219.773865,36.160267 218.068680,35.937325 213.792664,35.953117 
	C188.197632,36.047642 162.602112,36.002552 136.671967,36.002544 
	C135.891098,36.000248 135.445007,35.999680 134.998901,35.999107 
	C134.526657,31.439178 137.291779,30.952318 140.915909,30.962448 
	C166.962448,31.035261 193.009293,31.002892 219.589798,31.377083 
	C220.894485,36.840725 221.615295,41.939423 222.450500,47.019310 
	C223.281021,52.070694 223.070923,57.562561 227.994049,61.002045 
	C227.994049,61.002045 228.007828,61.492813 228.018860,62.104630 
	C229.695419,65.321304 231.244186,68.011620 233.066559,70.501686 
	C234.330444,72.228622 236.740356,73.449638 237.293686,75.298996 
	C238.732986,80.109444 242.508804,81.391235 246.500137,82.632950 
	C260.808350,87.084267 275.324249,78.546547 281.359985,69.422119 
	C288.308136,58.918324 290.775208,47.432552 288.998779,34.998917 
	C290.879883,31.385235 295.723602,29.435028 299.181427,31.353987 
	C300.220673,31.930723 300.986420,34.073917 300.903351,35.440285 
	C299.353485,60.932316 293.683868,85.179054 280.465607,107.482796 
	C269.397003,126.159325 255.116180,141.428192 236.678619,152.835114 
	C236.147095,153.163956 235.521805,153.341278 233.396606,154.247452 
	C234.781097,151.733414 235.335968,150.381744 236.180496,149.245331 
	C245.037460,137.327499 251.048126,124.180809 253.653702,109.509003 
	C254.862854,102.700325 252.726395,96.932114 247.351456,94.006165 
z"/>
<path fill="#AB3B3B" opacity="1.000000" stroke="none" 
	d="
M288.793640,34.792217 
	C290.775208,47.432552 288.308136,58.918324 281.359985,69.422119 
	C275.324249,78.546547 260.808350,87.084267 246.500137,82.632950 
	C242.508804,81.391235 238.732986,80.109444 237.293686,75.298996 
	C236.740356,73.449638 234.330444,72.228622 233.066559,70.501686 
	C231.244186,68.011620 229.695419,65.321304 228.021973,62.350094 
	C231.189667,65.341438 234.746521,68.419052 237.461868,72.114937 
	C243.176102,79.892639 251.053009,81.270325 259.498169,79.495399 
	C275.271210,76.180344 285.890076,62.308071 286.007080,46.035198 
	C286.041565,41.242596 286.314789,36.451710 286.726868,31.328136 
	C287.512909,32.192661 288.050690,33.389091 288.793640,34.792217 
z"/>
<path fill="#923331" opacity="1.000000" stroke="none" 
	d="
M244.731110,108.851105 
	C245.156738,106.486221 245.582367,104.121338 246.104370,101.360664 
	C246.200745,100.964882 246.594803,100.979919 246.791824,100.977341 
	C250.388016,105.437843 248.999207,110.461853 247.608246,114.840080 
	C244.371765,125.027290 240.879395,135.256058 234.073959,143.790222 
	C228.635773,150.609833 223.187042,157.514328 214.443298,160.659286 
	C214.960312,159.528244 215.663254,158.577744 216.575684,157.916168 
	C231.472214,147.115173 240.284637,132.261627 245.110382,114.831917 
	C245.614044,113.012764 244.887085,110.852890 244.731110,108.851105 
z"/>
<path fill="#AB3B3B" opacity="1.000000" stroke="none" 
	d="
M227.997864,60.601036 
	C223.070923,57.562561 223.281021,52.070694 222.450500,47.019310 
	C221.615295,41.939423 220.894485,36.840725 220.057983,31.377346 
	C220.749329,31.002617 221.506256,31.000807 222.642105,30.998156 
	C223.639709,33.174267 224.494431,35.315094 224.834152,37.534744 
	C225.988129,45.074821 226.960159,52.642742 227.997864,60.601036 
z"/>
<path fill="#B54143" opacity="1.000000" stroke="none" 
	d="
M134.668030,35.999329 
	C135.445007,35.999680 135.891098,36.000248 136.669937,36.470520 
	C137.260727,48.589943 137.420090,60.001484 130.406342,70.463570 
	C120.370728,85.433243 100.897110,92.441780 84.148628,81.076698 
	C80.752403,78.772102 77.431267,76.356857 74.042862,73.573944 
	C73.713760,70.430695 73.417320,67.706123 73.438736,65.076820 
	C74.998940,66.700783 76.317879,68.174042 77.470924,69.767365 
	C83.873375,78.614471 92.581230,83.239426 103.423889,82.783180 
	C116.685295,82.225151 125.042076,74.172752 130.116989,62.738308 
	C133.861603,54.301231 134.839188,45.217674 133.014557,36.002995 
	C133.455429,36.001846 133.896286,36.000698 134.668030,35.999329 
z"/>
<path fill="#A53C3C" opacity="1.000000" stroke="none" 
	d="
M132.758331,36.001041 
	C134.839188,45.217674 133.861603,54.301231 130.116989,62.738308 
	C125.042076,74.172752 116.685295,82.225151 103.423889,82.783180 
	C92.581230,83.239426 83.873375,78.614471 77.470924,69.767365 
	C76.317879,68.174042 74.998940,66.700783 73.272629,64.756149 
	C71.850357,61.895233 70.912048,59.450264 70.209412,56.720825 
	C70.297935,49.623707 70.150803,42.811058 70.003662,35.998413 
	C70.175880,35.997307 70.348091,35.996201 70.779053,35.990807 
	C71.776581,35.991783 72.515373,35.997044 73.624062,36.002739 
	C74.006744,37.068336 74.019524,38.133503 73.638916,39.735596 
	C72.834587,41.292046 72.073181,42.309303 72.066574,43.331436 
	C71.995659,54.305069 74.570328,64.437401 82.810715,72.229599 
	C90.650589,79.643051 99.901924,83.394012 110.569328,79.419556 
	C123.051910,74.768799 132.959244,58.417923 131.905197,45.113483 
	C131.819443,44.030991 130.734985,43.027618 130.114578,41.987480 
	C130.078598,40.280983 130.042618,38.574478 130.039612,36.442772 
	C130.498520,36.011578 130.924438,36.005585 131.670013,35.997849 
	C132.160477,35.997093 132.331284,35.998093 132.758331,36.001041 
z"/>
<path fill="#B73F41" opacity="1.000000" stroke="none" 
	d="
M69.651993,35.880013 
	C70.150803,42.811058 70.297935,49.623707 69.943710,56.513264 
	C67.787323,55.494118 66.132301,54.398060 64.477287,53.302002 
	C63.694057,55.327961 61.964645,57.532318 62.306629,59.346127 
	C63.296368,64.595436 64.800697,69.815254 66.787209,74.772484 
	C67.483345,76.509651 70.168648,77.449699 72.085587,79.099854 
	C79.064674,96.606979 88.748550,111.629723 104.387428,122.377914 
	C104.130234,117.305183 103.281982,112.501778 102.409058,107.702858 
	C101.220757,101.170174 104.775864,94.275696 110.018875,92.980064 
	C110.017029,94.994797 110.015190,97.009521 110.014206,99.557251 
	C110.015076,100.090248 109.901390,100.255379 109.568619,100.286682 
	C108.165489,103.208130 107.095131,106.098267 106.086685,109.291824 
	C106.761444,110.062630 107.374298,110.530022 107.993164,111.372925 
	C108.016167,112.499512 108.033157,113.250587 108.050140,114.001671 
	C108.988953,117.759315 109.927773,121.516960 110.936417,125.637268 
	C110.683731,128.021454 109.465172,130.484146 110.203339,131.983444 
	C112.612465,136.876648 115.729958,141.421722 118.586220,146.093811 
	C119.738747,147.979050 120.920418,149.846466 122.367218,152.168869 
	C97.278481,149.291718 60.254723,88.900330 57.298172,46.598019 
	C60.402786,48.135517 62.984367,47.812649 65.055046,45.234634 
	C67.371246,42.350941 67.542053,39.186207 65.516205,36.048138 
	C63.427414,32.812576 60.536903,32.634071 57.295151,34.105480 
	C57.291698,33.179989 56.931240,31.672384 57.341190,31.420967 
	C60.666199,29.381773 67.023308,31.602398 68.557892,35.139637 
	C68.672791,35.404476 69.046768,35.556915 69.651993,35.880013 
z"/>
<path fill="#D99A8F" opacity="1.000000" stroke="none" 
	d="
M57.106400,34.428982 
	C60.536903,32.634071 63.427414,32.812576 65.516205,36.048138 
	C67.542053,39.186207 67.371246,42.350941 65.055046,45.234634 
	C62.984367,47.812649 60.402786,48.135517 57.298058,46.172897 
	C54.611198,42.282425 54.174107,38.528591 57.106400,34.428982 
z"/>
<path fill="#F9F9F9" opacity="1.000000" stroke="none" 
	d="
M103.343636,37.083099 
	C101.017433,41.644615 97.689461,44.290157 92.855103,43.622871 
	C87.712914,42.913090 84.837852,39.380726 83.595146,34.455551 
	C83.514542,34.136086 83.350494,33.836601 83.280098,33.515793 
	C82.101425,28.143759 84.391144,21.719749 88.541374,18.913757 
	C91.871681,16.662123 95.447510,16.347694 98.809746,18.563606 
	C103.755768,21.823326 105.148834,26.827873 104.678665,32.445461 
	C104.556953,33.899673 103.923409,35.311054 103.343636,37.083099 
z"/>
<path fill="#782B29" opacity="1.000000" stroke="none" 
	d="
M76.003365,51.001244 
	C79.119186,57.641541 82.690025,64.022255 89.097816,68.033661 
	C101.471558,75.779877 116.360924,71.756310 124.082245,58.773327 
	C124.926308,57.354084 125.709274,55.898499 126.997681,54.505199 
	C127.046234,63.777233 121.276588,69.820923 114.234337,74.200310 
	C98.320297,84.096809 83.797409,74.444450 77.467735,60.369320 
	C76.217560,57.589325 76.453033,54.141232 76.003365,51.001244 
z"/>
<path fill="#973635" opacity="1.000000" stroke="none" 
	d="
M75.980774,50.681396 
	C76.453033,54.141232 76.217560,57.589325 77.467735,60.369320 
	C83.797409,74.444450 98.320297,84.096809 114.234337,74.200310 
	C121.276588,69.820923 127.046234,63.777233 127.252335,54.282135 
	C127.985161,50.256531 128.940445,46.499420 130.005157,42.364899 
	C130.734985,43.027618 131.819443,44.030991 131.905197,45.113483 
	C132.959244,58.417923 123.051910,74.768799 110.569328,79.419556 
	C99.901924,83.394012 90.650589,79.643051 82.810715,72.229599 
	C74.570328,64.437401 71.995659,54.305069 72.066574,43.331436 
	C72.073181,42.309303 72.834587,41.292046 73.608498,40.134216 
	C74.311501,42.066795 74.651527,44.137684 74.833321,46.783165 
	C75.052841,47.934479 75.430603,48.511204 75.808357,49.087929 
	C75.858299,49.512470 75.908241,49.937012 75.980774,50.681396 
z"/>
<path fill="#F7F8F7" opacity="1.000000" stroke="none" 
	d="
M118.194763,53.102001 
	C116.881477,56.551098 114.604485,59.008919 111.397835,57.783180 
	C109.200783,56.943363 106.469238,54.165657 106.328369,52.094307 
	C106.135292,49.255505 107.728683,45.949371 109.476089,43.499458 
	C110.148369,42.556904 114.586266,42.659542 115.157318,43.596699 
	C116.793327,46.281559 117.328026,49.637497 118.194763,53.102001 
z"/>
<path fill="#782B29" opacity="1.000000" stroke="none" 
	d="
M75.819862,48.794621 
	C75.430603,48.511204 75.052841,47.934479 74.854919,47.178810 
	C75.300293,47.500351 75.565826,48.000832 75.819862,48.794621 
z"/>
<path fill="#802C29" opacity="1.000000" stroke="none" 
	d="
M244.443512,109.097122 
	C244.887085,110.852890 245.614044,113.012764 245.110382,114.831917 
	C240.284637,132.261627 231.472214,147.115173 216.575684,157.916168 
	C215.663254,158.577744 214.960312,159.528244 214.078568,160.670868 
	C213.710022,161.146667 213.461685,161.344666 212.773499,161.940933 
	C207.420227,164.537949 202.669342,167.124252 197.643768,168.957672 
	C188.995651,172.112686 179.768494,171.354828 170.833649,171.481277 
	C159.656738,171.639465 150.725143,164.653214 141.907654,158.965164 
	C130.677048,151.720413 121.679283,141.969101 117.037094,128.920670 
	C116.757195,128.133881 115.715958,127.617973 115.028984,126.976013 
	C115.010536,126.239189 114.992088,125.502373 114.922905,124.043320 
	C113.926094,121.871506 112.980019,120.421913 112.033936,118.972321 
	C112.025635,118.534660 112.017334,118.097000 112.016022,116.990921 
	C112.381683,115.528847 112.740356,114.735191 113.099030,113.941528 
	C113.990768,115.737762 114.882500,117.533997 115.950233,120.008545 
	C118.096413,124.779152 120.066589,128.871445 122.040741,133.333313 
	C122.727074,135.187393 123.251373,136.771774 124.116318,138.140945 
	C132.523483,151.448990 144.600800,160.474182 159.319962,165.059906 
	C182.429443,172.259613 203.492523,167.345093 221.363449,150.908508 
	C225.592819,147.018585 228.470367,141.658890 231.983368,136.986145 
	C231.996948,136.996994 231.966263,136.971405 232.295746,136.894257 
	C233.081619,135.873138 233.538025,134.929153 234.145813,133.671173 
	C236.503891,128.886551 238.710617,124.415955 240.917343,119.945351 
	C241.996872,116.411278 243.076401,112.877213 244.443512,109.097122 
z"/>
<path fill="#933231" opacity="1.000000" stroke="none" 
	d="
M115.083618,127.361130 
	C115.715958,127.617973 116.757195,128.133881 117.037094,128.920670 
	C121.679283,141.969101 130.677048,151.720413 141.907654,158.965164 
	C150.725143,164.653214 159.656738,171.639465 170.833649,171.481277 
	C179.768494,171.354828 188.995651,172.112686 197.643768,168.957672 
	C202.669342,167.124252 207.420227,164.537949 212.638245,162.138474 
	C211.799530,163.584732 210.966629,165.902863 209.381989,166.671783 
	C189.660034,176.241608 169.267838,177.394730 149.708252,167.510742 
	C135.840637,160.503067 124.731331,149.435623 117.283897,135.376083 
	C116.075172,133.094223 115.829231,130.302353 115.083618,127.361130 
z"/>
<path fill="#933231" opacity="1.000000" stroke="none" 
	d="
M113.065491,113.617508 
	C112.740356,114.735191 112.381683,115.528847 112.006729,116.662750 
	C110.880569,116.049530 109.770699,115.096077 108.355484,114.072144 
	C108.033157,113.250587 108.016167,112.499512 108.003098,111.041901 
	C108.014984,109.893936 108.022964,109.452484 108.262360,108.709648 
	C108.962975,105.690628 109.432175,102.973007 109.901382,100.255379 
	C109.901390,100.255379 110.015076,100.090248 110.020264,99.989899 
	C110.788376,102.927727 111.551308,105.965904 112.084435,109.597000 
	C112.192322,110.796562 112.530014,111.403214 112.867699,112.009865 
	C112.922455,112.437737 112.977211,112.865608 113.065491,113.617508 
z"/>
<path fill="#933231" opacity="1.000000" stroke="none" 
	d="
M112.077255,119.325569 
	C112.980019,120.421913 113.926094,121.871506 114.911880,123.674957 
	C114.007927,122.578812 113.064247,121.128815 112.077255,119.325569 
z"/>
<path fill="#BF4547" opacity="1.000000" stroke="none" 
	d="
M110.159004,92.591652 
	C104.775864,94.275696 101.220757,101.170174 102.409058,107.702858 
	C103.281982,112.501778 104.130234,117.305183 104.387428,122.377914 
	C88.748550,111.629723 79.064674,96.606979 72.276627,78.836838 
	C72.910294,76.816017 73.492905,75.404320 74.075516,73.992615 
	C77.431267,76.356857 80.752403,78.772102 84.148628,81.076698 
	C100.897110,92.441780 120.370728,85.433243 130.406342,70.463570 
	C137.420090,60.001484 137.260727,48.589943 137.004700,36.472252 
	C162.602112,36.002552 188.197632,36.047642 213.792664,35.953117 
	C218.068680,35.937325 219.773865,36.160267 219.634232,41.863869 
	C219.307144,55.223454 223.780914,67.380669 234.291718,76.399841 
	C236.731064,78.493011 237.073257,79.982811 235.747345,82.653923 
	C234.579788,85.005989 233.919678,87.609932 233.019196,90.477287 
	C193.899536,90.902679 154.796143,90.937599 115.692993,91.054726 
	C113.893906,91.060120 112.097038,91.803551 110.159004,92.591652 
z"/>
<path fill="#402C23" opacity="1.000000" stroke="none" 
	d="
M240.456726,119.971893 
	C238.710617,124.415955 236.503891,128.886551 233.873489,133.831604 
	C232.955292,135.194519 232.460770,136.082962 231.966263,136.971405 
	C231.966263,136.971405 231.996948,136.996994 231.693619,137.152191 
	C226.341202,141.872604 221.292099,146.437805 216.090973,150.689529 
	C198.989960,128.223404 160.445053,128.075516 140.684204,150.067383 
	C138.681961,149.011032 136.797836,148.226608 135.456131,146.895477 
	C130.879974,142.355423 126.494820,137.622849 122.036766,132.963745 
	C120.066589,128.871445 118.096413,124.779152 116.083618,120.328400 
	C157.359360,119.979431 198.677734,119.988922 240.456726,119.971893 
z"/>
<path fill="#802C29" opacity="1.000000" stroke="none" 
	d="
M112.931152,111.707504 
	C112.530014,111.403214 112.192322,110.796562 112.054214,110.004417 
	C112.500732,110.347664 112.747673,110.876404 112.931152,111.707504 
z"/>
<path fill="#DA9B91" opacity="1.000000" stroke="none" 
	d="
M74.042862,73.573944 
	C73.492905,75.404320 72.910294,76.816017 72.136650,78.490738 
	C70.168648,77.449699 67.483345,76.509651 66.787209,74.772484 
	C64.800697,69.815254 63.296368,64.595436 62.306629,59.346127 
	C61.964645,57.532318 63.694057,55.327961 64.477287,53.302002 
	C66.132301,54.398060 67.787323,55.494118 69.708038,56.797737 
	C70.912048,59.450264 71.850357,61.895233 72.954773,64.660873 
	C73.417320,67.706123 73.713760,70.430695 74.042862,73.573944 
z"/>
<path fill="#A33736" opacity="1.000000" stroke="none" 
	d="
M109.568611,100.286682 
	C109.432175,102.973007 108.962975,105.690628 107.927429,108.704803 
	C106.915649,108.997040 106.470215,108.992729 106.024780,108.988411 
	C107.095131,106.098267 108.165489,103.208130 109.568611,100.286682 
z"/>
<path fill="#AE3939" opacity="1.000000" stroke="none" 
	d="
M106.086685,109.291824 
	C106.470215,108.992729 106.915649,108.997040 107.696014,109.006195 
	C108.022964,109.452484 108.014984,109.893936 107.997070,110.666397 
	C107.374298,110.530022 106.761444,110.062630 106.086685,109.291824 
z"/>
<path fill="#6B2622" opacity="1.000000" stroke="none" 
	d="
M216.242996,151.003006 
	C221.292099,146.437805 226.341202,141.872604 231.680023,137.141342 
	C228.470367,141.658890 225.592819,147.018585 221.363449,150.908508 
	C203.492523,167.345093 182.429443,172.259613 159.319962,165.059906 
	C144.600800,160.474182 132.523483,151.448990 124.116318,138.140945 
	C123.251373,136.771774 122.727074,135.187393 122.040741,133.333313 
	C126.494820,137.622849 130.879974,142.355423 135.456131,146.895477 
	C136.797836,148.226608 138.681961,149.011032 140.733047,150.401993 
	C141.827728,151.444611 142.416260,152.263824 143.199127,152.798553 
	C164.432449,167.301666 195.536240,166.524200 216.242996,151.003006 
z"/>
<path fill="#6B2622" opacity="1.000000" stroke="none" 
	d="
M232.295746,136.894257 
	C232.460770,136.082962 232.955292,135.194519 233.722137,134.145630 
	C233.538025,134.929153 233.081619,135.873138 232.295746,136.894257 
z"/>
<path fill="#DB6162" opacity="1.000000" stroke="none" 
	d="
M216.090973,150.689529 
	C195.536240,166.524200 164.432449,167.301666 143.199127,152.798553 
	C142.416260,152.263824 141.827728,151.444611 141.099792,150.423340 
	C160.445053,128.075516 198.989960,128.223404 216.090973,150.689529 
z"/>
</svg>